# xmcd CD database file
#
# Track frame offsets:
#	150
#	13341
#	25646
#	39435
#	51726
#	63303
#	74000
#	86005
#	104805
#	122387
#	134541
#	147960
#	160786
#	174191
#	187454
#	200849
#	210599
#	222512
#	231933
#	243858
#	256569
#	269989
#	283825
#	298399
#	310503
#
# Disc length: 4285 seconds
#
# Revision: 2
# Processed by: cddbd v1.5.2PL0 Copyright (c) Steve Scherf et al.
# Submitted via: CDex 1.70beta2
#
DISCID=9510bb19
DTITLE=Howlin' Wolf - The Ultimate Jazz Archive Set 16
DYEAR=2003
DGENRE=Blues
TTITLE0=Moanin' At Midnight
TTITLE1=How Many More Years
TTITLE2=Riding In The Moonlight
TTITLE3=Dog Me Around
TTITLE4=Morning At Midnight
TTITLE5=Keep What You Got
TTITLE6=Riding In The Moonlight (2)
TTITLE7=House Rockin' Boogie
TTITLE8=Crying At Daybreak
TTITLE9=Passing By Blues
TTITLE10=My Baby Stole Off
TTITLE11=I Want Your Picture
TTITLE12=The Wolf Is At Your Door (Howlin' For My Baby)
TTITLE13=California Blues
TTITLE14=California Boogie
TTITLE15=Look-A-Here Baby
TTITLE16=Howlin' Wolf Boogie
TTITLE17=Smile At Me
TTITLE18=Gettin' Old And Gray
TTITLE19=Mr.Highway Man
TTITLE20=My Baby Walked Off
TTITLE21=C. V. Wine Blues
TTITLE22=My Troubles And Me
TTITLE23=Chocolate Drop
TTITLE24=Highway Man
EXTD=YEAR: 2003
EXTT0=
EXTT1=
EXTT2=
EXTT3=
EXTT4=
EXTT5=
EXTT6=
EXTT7=
EXTT8=
EXTT9=
EXTT10=
EXTT11=
EXTT12=
EXTT13=
EXTT14=
EXTT15=
EXTT16=
EXTT17=
EXTT18=
EXTT19=
EXTT20=
EXTT21=
EXTT22=
EXTT23=
EXTT24=
PLAYORDER=
